<mxfile host="app.diagrams.net" agent="Mozilla/5.0 (Windows NT 10.0; Win64; x64) AppleWebKit/537.36 (KHTML, like Gecko) Chrome/136.0.0.0 Safari/537.36" version="27.0.9" pages="2">
  <diagram id="C5RBs43oDa-KdzZeNtuy" name="Page-1">
    <mxGraphModel dx="1737" dy="965" grid="1" gridSize="10" guides="1" tooltips="1" connect="1" arrows="1" fold="1" page="1" pageScale="1" pageWidth="827" pageHeight="1169" background="light-dark(#ffffff, #121212)" math="0" shadow="0">
      <root>
        <mxCell id="WIyWlLk6GJQsqaUBKTNV-0" />
        <mxCell id="WIyWlLk6GJQsqaUBKTNV-1" parent="WIyWlLk6GJQsqaUBKTNV-0" />
        <mxCell id="WPaJV7UruzwQLS_bsCFg-2" value="&lt;b&gt;Student&lt;/b&gt;" style="rounded=0;whiteSpace=wrap;html=1;" vertex="1" parent="WIyWlLk6GJQsqaUBKTNV-1">
          <mxGeometry x="70" y="180" width="160" height="40" as="geometry" />
        </mxCell>
        <mxCell id="WPaJV7UruzwQLS_bsCFg-3" value="- name: String&amp;nbsp;&lt;div&gt;- rollNo : int&lt;/div&gt;" style="rounded=0;whiteSpace=wrap;html=1;align=left;" vertex="1" parent="WIyWlLk6GJQsqaUBKTNV-1">
          <mxGeometry x="70" y="220" width="160" height="60" as="geometry" />
        </mxCell>
        <mxCell id="WPaJV7UruzwQLS_bsCFg-24" value="&lt;div&gt;+ getRollno(): int&lt;/div&gt;" style="rounded=0;whiteSpace=wrap;html=1;align=left;" vertex="1" parent="WIyWlLk6GJQsqaUBKTNV-1">
          <mxGeometry x="70" y="280" width="160" height="60" as="geometry" />
        </mxCell>
        <mxCell id="WPaJV7UruzwQLS_bsCFg-25" value="" style="line;strokeWidth=1;fillColor=none;align=left;verticalAlign=middle;spacingTop=-1;spacingLeft=3;spacingRight=3;rotatable=0;labelPosition=right;points=[];portConstraint=eastwest;strokeColor=inherit;" vertex="1" parent="WIyWlLk6GJQsqaUBKTNV-1">
          <mxGeometry x="230" y="260" width="110" height="8" as="geometry" />
        </mxCell>
        <mxCell id="WPaJV7UruzwQLS_bsCFg-26" value="Course" style="swimlane;fontStyle=1;align=center;verticalAlign=top;childLayout=stackLayout;horizontal=1;startSize=26;horizontalStack=0;resizeParent=1;resizeParentMax=0;resizeLast=0;collapsible=1;marginBottom=0;whiteSpace=wrap;html=1;" vertex="1" parent="WIyWlLk6GJQsqaUBKTNV-1">
          <mxGeometry x="340" y="180" width="160" height="154" as="geometry" />
        </mxCell>
        <mxCell id="WPaJV7UruzwQLS_bsCFg-27" value="- courseName: String&lt;div&gt;- courseCode: String&lt;/div&gt;" style="text;strokeColor=none;fillColor=none;align=left;verticalAlign=top;spacingLeft=4;spacingRight=4;overflow=hidden;rotatable=0;points=[[0,0.5],[1,0.5]];portConstraint=eastwest;whiteSpace=wrap;html=1;" vertex="1" parent="WPaJV7UruzwQLS_bsCFg-26">
          <mxGeometry y="26" width="160" height="54" as="geometry" />
        </mxCell>
        <mxCell id="WPaJV7UruzwQLS_bsCFg-28" value="" style="line;strokeWidth=1;fillColor=none;align=left;verticalAlign=middle;spacingTop=-1;spacingLeft=3;spacingRight=3;rotatable=0;labelPosition=right;points=[];portConstraint=eastwest;strokeColor=inherit;" vertex="1" parent="WPaJV7UruzwQLS_bsCFg-26">
          <mxGeometry y="80" width="160" height="8" as="geometry" />
        </mxCell>
        <mxCell id="WPaJV7UruzwQLS_bsCFg-29" value="+ enroll(): void" style="text;strokeColor=none;fillColor=none;align=left;verticalAlign=top;spacingLeft=4;spacingRight=4;overflow=hidden;rotatable=0;points=[[0,0.5],[1,0.5]];portConstraint=eastwest;whiteSpace=wrap;html=1;" vertex="1" parent="WPaJV7UruzwQLS_bsCFg-26">
          <mxGeometry y="88" width="160" height="66" as="geometry" />
        </mxCell>
        <mxCell id="WPaJV7UruzwQLS_bsCFg-30" value="enrolls in" style="text;align=center;fontStyle=1;verticalAlign=middle;spacingLeft=3;spacingRight=3;strokeColor=none;rotatable=0;points=[[0,0.5],[1,0.5]];portConstraint=eastwest;html=1;" vertex="1" parent="WIyWlLk6GJQsqaUBKTNV-1">
          <mxGeometry x="244" y="230" width="80" height="26" as="geometry" />
        </mxCell>
        <mxCell id="WPaJV7UruzwQLS_bsCFg-33" value="" style="endArrow=open;endFill=1;endSize=12;html=1;rounded=0;fontSize=12;curved=1;entryX=-0.002;entryY=1.081;entryDx=0;entryDy=0;entryPerimeter=0;" edge="1" parent="WIyWlLk6GJQsqaUBKTNV-1" target="WPaJV7UruzwQLS_bsCFg-35">
          <mxGeometry width="160" relative="1" as="geometry">
            <mxPoint x="480" y="263.5" as="sourcePoint" />
            <mxPoint x="590" y="264" as="targetPoint" />
            <Array as="points">
              <mxPoint x="570" y="263.5" />
            </Array>
          </mxGeometry>
        </mxCell>
        <mxCell id="WPaJV7UruzwQLS_bsCFg-34" value="Teacher" style="swimlane;fontStyle=1;align=center;verticalAlign=top;childLayout=stackLayout;horizontal=1;startSize=26;horizontalStack=0;resizeParent=1;resizeParentMax=0;resizeLast=0;collapsible=1;marginBottom=0;whiteSpace=wrap;html=1;" vertex="1" parent="WIyWlLk6GJQsqaUBKTNV-1">
          <mxGeometry x="630" y="180" width="160" height="160" as="geometry" />
        </mxCell>
        <mxCell id="WPaJV7UruzwQLS_bsCFg-35" value="- teacherName: String" style="text;strokeColor=none;fillColor=none;align=left;verticalAlign=top;spacingLeft=4;spacingRight=4;overflow=hidden;rotatable=0;points=[[0,0.5],[1,0.5]];portConstraint=eastwest;whiteSpace=wrap;html=1;" vertex="1" parent="WPaJV7UruzwQLS_bsCFg-34">
          <mxGeometry y="26" width="160" height="54" as="geometry" />
        </mxCell>
        <mxCell id="WPaJV7UruzwQLS_bsCFg-36" value="" style="line;strokeWidth=1;fillColor=none;align=left;verticalAlign=middle;spacingTop=-1;spacingLeft=3;spacingRight=3;rotatable=0;labelPosition=right;points=[];portConstraint=eastwest;strokeColor=inherit;" vertex="1" parent="WPaJV7UruzwQLS_bsCFg-34">
          <mxGeometry y="80" width="160" height="8" as="geometry" />
        </mxCell>
        <mxCell id="WPaJV7UruzwQLS_bsCFg-37" value="+ assignCourse(): void&amp;nbsp; &amp;nbsp;" style="text;strokeColor=none;fillColor=none;align=left;verticalAlign=top;spacingLeft=4;spacingRight=4;overflow=hidden;rotatable=0;points=[[0,0.5],[1,0.5]];portConstraint=eastwest;whiteSpace=wrap;html=1;" vertex="1" parent="WPaJV7UruzwQLS_bsCFg-34">
          <mxGeometry y="88" width="160" height="72" as="geometry" />
        </mxCell>
        <mxCell id="WPaJV7UruzwQLS_bsCFg-38" value="Teaches" style="text;align=center;fontStyle=1;verticalAlign=middle;spacingLeft=3;spacingRight=3;strokeColor=none;rotatable=0;points=[[0,0.5],[1,0.5]];portConstraint=eastwest;html=1;" vertex="1" parent="WIyWlLk6GJQsqaUBKTNV-1">
          <mxGeometry x="500" y="230" width="80" height="26" as="geometry" />
        </mxCell>
        <mxCell id="WPaJV7UruzwQLS_bsCFg-39" value="" style="endArrow=open;html=1;endSize=12;startArrow=diamondThin;startSize=14;startFill=0;edgeStyle=orthogonalEdgeStyle;align=left;verticalAlign=bottom;rounded=0;fontSize=12;curved=1;entryX=0.36;entryY=1.044;entryDx=0;entryDy=0;entryPerimeter=0;exitX=0.5;exitY=0;exitDx=0;exitDy=0;" edge="1" parent="WIyWlLk6GJQsqaUBKTNV-1" source="WPaJV7UruzwQLS_bsCFg-42" target="WPaJV7UruzwQLS_bsCFg-29">
          <mxGeometry x="-0.25" y="80" relative="1" as="geometry">
            <mxPoint x="410" y="470" as="sourcePoint" />
            <mxPoint x="410" y="460" as="targetPoint" />
            <Array as="points">
              <mxPoint x="410" y="440" />
              <mxPoint x="398" y="440" />
            </Array>
            <mxPoint as="offset" />
          </mxGeometry>
        </mxCell>
        <mxCell id="WPaJV7UruzwQLS_bsCFg-42" value="Syllabus" style="swimlane;fontStyle=1;align=center;verticalAlign=top;childLayout=stackLayout;horizontal=1;startSize=26;horizontalStack=0;resizeParent=1;resizeParentMax=0;resizeLast=0;collapsible=1;marginBottom=0;whiteSpace=wrap;html=1;" vertex="1" parent="WIyWlLk6GJQsqaUBKTNV-1">
          <mxGeometry x="330" y="490" width="160" height="86" as="geometry" />
        </mxCell>
        <mxCell id="WPaJV7UruzwQLS_bsCFg-43" value="- content: Sting" style="text;strokeColor=none;fillColor=none;align=left;verticalAlign=top;spacingLeft=4;spacingRight=4;overflow=hidden;rotatable=0;points=[[0,0.5],[1,0.5]];portConstraint=eastwest;whiteSpace=wrap;html=1;" vertex="1" parent="WPaJV7UruzwQLS_bsCFg-42">
          <mxGeometry y="26" width="160" height="26" as="geometry" />
        </mxCell>
        <mxCell id="WPaJV7UruzwQLS_bsCFg-44" value="" style="line;strokeWidth=1;fillColor=none;align=left;verticalAlign=middle;spacingTop=-1;spacingLeft=3;spacingRight=3;rotatable=0;labelPosition=right;points=[];portConstraint=eastwest;strokeColor=inherit;" vertex="1" parent="WPaJV7UruzwQLS_bsCFg-42">
          <mxGeometry y="52" width="160" height="8" as="geometry" />
        </mxCell>
        <mxCell id="WPaJV7UruzwQLS_bsCFg-45" value="+ getContent(): String" style="text;strokeColor=none;fillColor=none;align=left;verticalAlign=top;spacingLeft=4;spacingRight=4;overflow=hidden;rotatable=0;points=[[0,0.5],[1,0.5]];portConstraint=eastwest;whiteSpace=wrap;html=1;" vertex="1" parent="WPaJV7UruzwQLS_bsCFg-42">
          <mxGeometry y="60" width="160" height="26" as="geometry" />
        </mxCell>
        <mxCell id="WPaJV7UruzwQLS_bsCFg-47" value="has" style="text;align=center;fontStyle=1;verticalAlign=middle;spacingLeft=3;spacingRight=3;strokeColor=none;rotatable=0;points=[[0,0.5],[1,0.5]];portConstraint=eastwest;html=1;" vertex="1" parent="WIyWlLk6GJQsqaUBKTNV-1">
          <mxGeometry x="320" y="410" width="80" height="26" as="geometry" />
        </mxCell>
      </root>
    </mxGraphModel>
  </diagram>
  <diagram id="p_zyEL24iIvetLP8JZPU" name="Page-2">
    <mxGraphModel dx="896" dy="1453" grid="0" gridSize="10" guides="1" tooltips="1" connect="1" arrows="0" fold="1" page="0" pageScale="1" pageWidth="850" pageHeight="1100" math="0" shadow="0">
      <root>
        <mxCell id="0" />
        <mxCell id="1" parent="0" />
        <mxCell id="mS1heF4vFmtWx_KwzhsS-2" value="&lt;div&gt;&lt;i style=&quot;&quot;&gt;&lt;font style=&quot;font-size: 9px;&quot;&gt;&amp;lt;&amp;lt;Abstract&amp;gt;&amp;gt;&lt;/font&gt;&lt;/i&gt;&lt;/div&gt;&lt;b&gt;&lt;i&gt;&lt;font style=&quot;font-size: 9px;&quot;&gt;Person&lt;/font&gt;&lt;/i&gt;&lt;/b&gt;" style="swimlane;fontStyle=0;childLayout=stackLayout;horizontal=1;startSize=26;fillColor=none;horizontalStack=0;resizeParent=1;resizeParentMax=0;resizeLast=0;collapsible=1;marginBottom=0;whiteSpace=wrap;html=1;labelBackgroundColor=none;" vertex="1" parent="1">
          <mxGeometry x="42" y="-193" width="140" height="94" as="geometry" />
        </mxCell>
        <mxCell id="mS1heF4vFmtWx_KwzhsS-3" value="- name ():String&lt;div&gt;- email ():String&amp;nbsp;&lt;/div&gt;&lt;div&gt;-phoneNumber():int&lt;/div&gt;&lt;div&gt;-address ():String&lt;/div&gt;" style="text;strokeColor=none;fillColor=none;align=left;verticalAlign=top;spacingLeft=4;spacingRight=4;overflow=hidden;rotatable=0;points=[[0,0.5],[1,0.5]];portConstraint=eastwest;whiteSpace=wrap;html=1;labelBackgroundColor=none;" vertex="1" parent="mS1heF4vFmtWx_KwzhsS-2">
          <mxGeometry y="26" width="140" height="68" as="geometry" />
        </mxCell>
        <mxCell id="8CpdKijH5Njziu39MDCN-3" value="&lt;i&gt;&lt;font style=&quot;font-size: 11px;&quot;&gt;Abstract&lt;/font&gt;&lt;/i&gt;" style="text;html=1;align=center;verticalAlign=middle;resizable=0;points=[];autosize=1;strokeColor=none;fillColor=none;fontSize=16;" vertex="1" parent="1">
          <mxGeometry x="186" y="-170" width="58" height="31" as="geometry" />
        </mxCell>
        <mxCell id="8CpdKijH5Njziu39MDCN-5" value="" style="edgeStyle=none;html=1;endSize=12;endArrow=block;endFill=0;rounded=0;fontSize=12;curved=1;entryX=0.488;entryY=1.02;entryDx=0;entryDy=0;entryPerimeter=0;exitX=0.5;exitY=0;exitDx=0;exitDy=0;" edge="1" parent="1">
          <mxGeometry width="160" relative="1" as="geometry">
            <mxPoint x="254" y="43.639999999999986" as="sourcePoint" />
            <mxPoint x="109.31999999999994" y="-56.999999999999986" as="targetPoint" />
            <Array as="points">
              <mxPoint x="109" y="6.640000000000001" />
            </Array>
          </mxGeometry>
        </mxCell>
        <mxCell id="8CpdKijH5Njziu39MDCN-9" value="" style="edgeStyle=none;html=1;endSize=12;endArrow=block;endFill=0;rounded=0;fontSize=12;curved=1;entryX=0.527;entryY=0.979;entryDx=0;entryDy=0;entryPerimeter=0;exitX=0.418;exitY=0.006;exitDx=0;exitDy=0;exitPerimeter=0;" edge="1" parent="1">
          <mxGeometry width="160" relative="1" as="geometry">
            <mxPoint x="-11.11999999999989" y="46.18799999999999" as="sourcePoint" />
            <mxPoint x="108.77999999999997" y="-56.998" as="targetPoint" />
            <Array as="points">
              <mxPoint x="111" y="-5.569999999999993" />
            </Array>
          </mxGeometry>
        </mxCell>
        <mxCell id="8CpdKijH5Njziu39MDCN-10" value="&lt;div&gt;&lt;div&gt;&lt;font style=&quot;font-size: 9px;&quot;&gt;+getDetails():String&amp;nbsp;&lt;/font&gt;&lt;/div&gt;&lt;div&gt;&lt;span style=&quot;background-color: transparent; color: light-dark(rgb(0, 0, 0), rgb(255, 255, 255));&quot;&gt;&lt;font style=&quot;font-size: 9px;&quot;&gt;+updateContactInfo():String: void&lt;/font&gt;&lt;/span&gt;&lt;/div&gt;&lt;/div&gt;" style="rounded=0;whiteSpace=wrap;html=1;align=left;" vertex="1" parent="1">
          <mxGeometry x="42" y="-99" width="140" height="42" as="geometry" />
        </mxCell>
        <mxCell id="8CpdKijH5Njziu39MDCN-15" value="Student" style="swimlane;fontStyle=1;align=center;verticalAlign=top;childLayout=stackLayout;horizontal=1;startSize=26;horizontalStack=0;resizeParent=1;resizeParentMax=0;resizeLast=0;collapsible=1;marginBottom=0;whiteSpace=wrap;html=1;" vertex="1" parent="1">
          <mxGeometry x="-96" y="45" width="160" height="127" as="geometry" />
        </mxCell>
        <mxCell id="8CpdKijH5Njziu39MDCN-16" value="&lt;font style=&quot;font-size: 10px;&quot;&gt;- studentId: String&lt;/font&gt;&lt;div&gt;&lt;font style=&quot;font-size: 10px;&quot;&gt;- enrolledCourses: List&amp;lt;Course&amp;gt;&lt;/font&gt;&lt;/div&gt;" style="text;strokeColor=none;fillColor=none;align=left;verticalAlign=top;spacingLeft=4;spacingRight=4;overflow=hidden;rotatable=0;points=[[0,0.5],[1,0.5]];portConstraint=eastwest;whiteSpace=wrap;html=1;" vertex="1" parent="8CpdKijH5Njziu39MDCN-15">
          <mxGeometry y="26" width="160" height="44" as="geometry" />
        </mxCell>
        <mxCell id="8CpdKijH5Njziu39MDCN-17" value="" style="line;strokeWidth=1;fillColor=none;align=left;verticalAlign=middle;spacingTop=-1;spacingLeft=3;spacingRight=3;rotatable=0;labelPosition=right;points=[];portConstraint=eastwest;strokeColor=inherit;" vertex="1" parent="8CpdKijH5Njziu39MDCN-15">
          <mxGeometry y="70" width="160" height="8" as="geometry" />
        </mxCell>
        <mxCell id="8CpdKijH5Njziu39MDCN-18" value="&lt;div style=&quot;line-height: 45%;&quot;&gt;&lt;font style=&quot;font-size: 9px; line-height: 45%;&quot;&gt;+ enroll (course: courses): void&lt;/font&gt;&lt;div&gt;&lt;font style=&quot;font-size: 9px;&quot;&gt;&lt;br&gt;&lt;/font&gt;&lt;/div&gt;&lt;div&gt;&lt;font style=&quot;font-size: 9px; line-height: 45%;&quot;&gt;+ dropCourse(course: Course): void&lt;/font&gt;&lt;/div&gt;&lt;div&gt;&lt;font style=&quot;font-size: 9px;&quot;&gt;&lt;br&gt;&lt;/font&gt;&lt;/div&gt;&lt;div&gt;&lt;font style=&quot;font-size: 9px; line-height: 45%;&quot;&gt;+ listEnrolledCourses():List&amp;lt;Course&amp;gt;&lt;/font&gt;&lt;/div&gt;&lt;/div&gt;" style="text;strokeColor=none;fillColor=none;align=left;verticalAlign=top;spacingLeft=4;spacingRight=4;overflow=hidden;rotatable=0;points=[[0,0.5],[1,0.5]];portConstraint=eastwest;whiteSpace=wrap;html=1;" vertex="1" parent="8CpdKijH5Njziu39MDCN-15">
          <mxGeometry y="78" width="160" height="49" as="geometry" />
        </mxCell>
        <mxCell id="8CpdKijH5Njziu39MDCN-19" value="Teacher" style="swimlane;fontStyle=1;align=center;verticalAlign=top;childLayout=stackLayout;horizontal=1;startSize=26;horizontalStack=0;resizeParent=1;resizeParentMax=0;resizeLast=0;collapsible=1;marginBottom=0;whiteSpace=wrap;html=1;" vertex="1" parent="1">
          <mxGeometry x="186" y="45" width="160" height="127" as="geometry" />
        </mxCell>
        <mxCell id="8CpdKijH5Njziu39MDCN-20" value="&lt;div&gt;&lt;font style=&quot;font-size: 8px;&quot;&gt;- employeeId: String&amp;nbsp; &amp;nbsp; &amp;nbsp; &amp;nbsp;&lt;/font&gt;&lt;/div&gt;&lt;div&gt;&lt;font style=&quot;font-size: 8px;&quot;&gt;| - coursesTeaching: List&amp;lt;Course&amp;gt;&amp;nbsp;&lt;/font&gt;&lt;/div&gt;" style="text;strokeColor=none;fillColor=none;align=left;verticalAlign=top;spacingLeft=4;spacingRight=4;overflow=hidden;rotatable=0;points=[[0,0.5],[1,0.5]];portConstraint=eastwest;whiteSpace=wrap;html=1;" vertex="1" parent="8CpdKijH5Njziu39MDCN-19">
          <mxGeometry y="26" width="160" height="36" as="geometry" />
        </mxCell>
        <mxCell id="8CpdKijH5Njziu39MDCN-21" value="" style="line;strokeWidth=1;fillColor=none;align=left;verticalAlign=middle;spacingTop=-1;spacingLeft=3;spacingRight=3;rotatable=0;labelPosition=right;points=[];portConstraint=eastwest;strokeColor=inherit;" vertex="1" parent="8CpdKijH5Njziu39MDCN-19">
          <mxGeometry y="62" width="160" height="8" as="geometry" />
        </mxCell>
        <mxCell id="8CpdKijH5Njziu39MDCN-22" value="&lt;div&gt;&lt;font style=&quot;font-size: 7px;&quot;&gt;+ assignCourse(course: Course): void&amp;nbsp;&lt;/font&gt;&lt;/div&gt;&lt;div&gt;&lt;font style=&quot;font-size: 7px;&quot;&gt;+ removeCourse(course: Course): void&amp;nbsp;&lt;/font&gt;&lt;/div&gt;&lt;div&gt;&lt;span style=&quot;font-size: 7px; background-color: transparent; color: light-dark(rgb(0, 0, 0), rgb(255, 255, 255));&quot;&gt;+ listCoursesTeaching(): List&amp;lt;Course&amp;gt;&amp;nbsp;&lt;/span&gt;&lt;/div&gt;" style="text;strokeColor=none;fillColor=none;align=left;verticalAlign=top;spacingLeft=4;spacingRight=4;overflow=hidden;rotatable=0;points=[[0,0.5],[1,0.5]];portConstraint=eastwest;whiteSpace=wrap;html=1;" vertex="1" parent="8CpdKijH5Njziu39MDCN-19">
          <mxGeometry y="70" width="160" height="57" as="geometry" />
        </mxCell>
        <mxCell id="8CpdKijH5Njziu39MDCN-24" value="" style="edgeStyle=none;curved=1;rounded=0;orthogonalLoop=1;jettySize=auto;html=1;fontSize=12;startSize=8;endSize=8;" edge="1" parent="1" source="8CpdKijH5Njziu39MDCN-23">
          <mxGeometry relative="1" as="geometry">
            <mxPoint x="129" y="-22" as="targetPoint" />
            <Array as="points">
              <mxPoint x="138" y="-27" />
            </Array>
          </mxGeometry>
        </mxCell>
        <mxCell id="8CpdKijH5Njziu39MDCN-23" value="&lt;font style=&quot;font-size: 12px;&quot;&gt;&lt;b&gt;Inherits&lt;/b&gt;&lt;/font&gt;" style="text;html=1;align=center;verticalAlign=middle;resizable=0;points=[];autosize=1;strokeColor=none;fillColor=none;fontSize=16;" vertex="1" parent="1">
          <mxGeometry x="169" y="-46" width="61" height="31" as="geometry" />
        </mxCell>
        <mxCell id="8CpdKijH5Njziu39MDCN-25" value="Courses" style="swimlane;fontStyle=1;align=center;verticalAlign=top;childLayout=stackLayout;horizontal=1;startSize=26;horizontalStack=0;resizeParent=1;resizeParentMax=0;resizeLast=0;collapsible=1;marginBottom=0;whiteSpace=wrap;html=1;" vertex="1" parent="1">
          <mxGeometry x="186" y="255" width="160" height="188" as="geometry" />
        </mxCell>
        <mxCell id="8CpdKijH5Njziu39MDCN-26" value="&lt;div style=&quot;line-height: 10%;&quot;&gt;&lt;p class=&quot;MsoNormal&quot;&gt;&lt;font style=&quot;line-height: 10%; font-size: 9px;&quot;&gt;- courseId: String&amp;nbsp; &amp;nbsp; &amp;nbsp; &amp;nbsp;&amp;nbsp;&lt;/font&gt;&lt;/p&gt;&lt;p class=&quot;MsoNormal&quot;&gt;&lt;span style=&quot;background-color: transparent; color: light-dark(rgb(0, 0, 0), rgb(255, 255, 255));&quot;&gt;&lt;font style=&quot;font-size: 9px;&quot;&gt;- courseName: String&amp;nbsp; &amp;nbsp; &amp;nbsp;&amp;nbsp;&lt;/font&gt;&lt;/span&gt;&lt;/p&gt;&lt;p class=&quot;MsoNormal&quot;&gt;&lt;font style=&quot;line-height: 10%; font-size: 9px;&quot;&gt;- credits: int&amp;nbsp;&amp;nbsp;&amp;nbsp;&amp;nbsp;&amp;nbsp;&amp;nbsp;&amp;nbsp;&amp;nbsp;&amp;nbsp;&amp;nbsp;&amp;nbsp;&amp;nbsp; &lt;/font&gt;&lt;/p&gt;&lt;p class=&quot;MsoNormal&quot;&gt;&lt;font style=&quot;line-height: 10%; font-size: 9px;&quot;&gt;- teacher: Teacher&amp;nbsp; &amp;nbsp; &amp;nbsp;&lt;/font&gt;&lt;/p&gt;&lt;p class=&quot;MsoNormal&quot;&gt;&lt;font style=&quot;line-height: 10%; font-size: 9px;&quot;&gt;&lt;span style=&quot;background-color: transparent; color: light-dark(rgb(0, 0, 0), rgb(255, 255, 255));&quot;&gt;- syllabus: Syllabus&lt;/span&gt;&amp;nbsp;&amp;nbsp; &amp;nbsp;&lt;/font&gt;&lt;/p&gt;&lt;/div&gt;" style="text;strokeColor=none;fillColor=none;align=left;verticalAlign=top;spacingLeft=4;spacingRight=4;overflow=hidden;rotatable=0;points=[[0,0.5],[1,0.5]];portConstraint=eastwest;whiteSpace=wrap;html=1;" vertex="1" parent="8CpdKijH5Njziu39MDCN-25">
          <mxGeometry y="26" width="160" height="92" as="geometry" />
        </mxCell>
        <mxCell id="8CpdKijH5Njziu39MDCN-27" value="" style="line;strokeWidth=1;fillColor=none;align=left;verticalAlign=middle;spacingTop=-1;spacingLeft=3;spacingRight=3;rotatable=0;labelPosition=right;points=[];portConstraint=eastwest;strokeColor=inherit;" vertex="1" parent="8CpdKijH5Njziu39MDCN-25">
          <mxGeometry y="118" width="160" height="8" as="geometry" />
        </mxCell>
        <mxCell id="8CpdKijH5Njziu39MDCN-28" value="&lt;div style=&quot;line-height: 20%;&quot;&gt;&lt;p class=&quot;MsoNormal&quot;&gt;&lt;font style=&quot;line-height: 20%; font-size: 7px;&quot;&gt;+ addStudent(student: Student):void&lt;/font&gt;&lt;/p&gt;&lt;p class=&quot;MsoNormal&quot;&gt;&lt;span style=&quot;background-color: transparent; color: light-dark(rgb(0, 0, 0), rgb(255, 255, 255));&quot;&gt;&lt;font style=&quot;font-size: 7px;&quot;&gt;+ removeStudent(student: Student):&amp;nbsp;&lt;/font&gt;&lt;/span&gt;&lt;span style=&quot;font-size: 7px; background-color: transparent; color: light-dark(rgb(0, 0, 0), rgb(255, 255, 255));&quot;&gt;void&lt;/span&gt;&lt;/p&gt;&lt;p class=&quot;MsoNormal&quot;&gt;&lt;font style=&quot;line-height: 20%; font-size: 7px;&quot;&gt;+ getCourseInfo(): String&amp;nbsp;&amp;nbsp;&lt;/font&gt;&lt;/p&gt;&lt;/div&gt;" style="text;strokeColor=none;fillColor=none;align=left;verticalAlign=top;spacingLeft=4;spacingRight=4;overflow=hidden;rotatable=0;points=[[0,0.5],[1,0.5]];portConstraint=eastwest;whiteSpace=wrap;html=1;" vertex="1" parent="8CpdKijH5Njziu39MDCN-25">
          <mxGeometry y="126" width="160" height="62" as="geometry" />
        </mxCell>
        <mxCell id="8CpdKijH5Njziu39MDCN-30" value="" style="endArrow=open;endFill=0;endSize=5;html=1;rounded=0;fontSize=12;curved=1;exitX=0.497;exitY=1.001;exitDx=0;exitDy=0;exitPerimeter=0;startArrow=open;startFill=0;startSize=6;entryX=0.5;entryY=0;entryDx=0;entryDy=0;entryPerimeter=0;" edge="1" parent="1" source="8CpdKijH5Njziu39MDCN-22" target="8CpdKijH5Njziu39MDCN-25">
          <mxGeometry width="160" relative="1" as="geometry">
            <mxPoint x="140" y="217" as="sourcePoint" />
            <mxPoint x="266" y="252" as="targetPoint" />
          </mxGeometry>
        </mxCell>
        <mxCell id="8CpdKijH5Njziu39MDCN-31" value="&lt;font style=&quot;font-size: 9px;&quot;&gt;teaches&lt;/font&gt;" style="text;html=1;align=center;verticalAlign=middle;resizable=0;points=[];autosize=1;strokeColor=none;fillColor=none;fontSize=16;" vertex="1" parent="1">
          <mxGeometry x="269" y="187.5" width="50" height="31" as="geometry" />
        </mxCell>
        <mxCell id="8CpdKijH5Njziu39MDCN-41" value="Syllabus" style="swimlane;fontStyle=1;align=center;verticalAlign=top;childLayout=stackLayout;horizontal=1;startSize=26;horizontalStack=0;resizeParent=1;resizeParentMax=0;resizeLast=0;collapsible=1;marginBottom=0;whiteSpace=wrap;html=1;" vertex="1" parent="1">
          <mxGeometry x="454" y="317" width="191" height="126" as="geometry" />
        </mxCell>
        <mxCell id="8CpdKijH5Njziu39MDCN-42" value="- topics: List&amp;lt;String&amp;gt;&amp;nbsp;&lt;div&gt;- objectives: List&amp;lt;String&amp;gt;&lt;/div&gt;&lt;div&gt;- schedule: String&lt;/div&gt;" style="text;strokeColor=none;fillColor=none;align=left;verticalAlign=top;spacingLeft=4;spacingRight=4;overflow=hidden;rotatable=0;points=[[0,0.5],[1,0.5]];portConstraint=eastwest;whiteSpace=wrap;html=1;" vertex="1" parent="8CpdKijH5Njziu39MDCN-41">
          <mxGeometry y="26" width="191" height="53" as="geometry" />
        </mxCell>
        <mxCell id="8CpdKijH5Njziu39MDCN-43" value="" style="line;strokeWidth=1;fillColor=none;align=left;verticalAlign=middle;spacingTop=-1;spacingLeft=3;spacingRight=3;rotatable=0;labelPosition=right;points=[];portConstraint=eastwest;strokeColor=inherit;" vertex="1" parent="8CpdKijH5Njziu39MDCN-41">
          <mxGeometry y="79" width="191" height="8" as="geometry" />
        </mxCell>
        <mxCell id="8CpdKijH5Njziu39MDCN-44" value="+ addTopic(topic: String): void&lt;div&gt;+ getSyllabusOverview(): String&lt;/div&gt;" style="text;strokeColor=none;fillColor=none;align=left;verticalAlign=top;spacingLeft=4;spacingRight=4;overflow=hidden;rotatable=0;points=[[0,0.5],[1,0.5]];portConstraint=eastwest;whiteSpace=wrap;html=1;" vertex="1" parent="8CpdKijH5Njziu39MDCN-41">
          <mxGeometry y="87" width="191" height="39" as="geometry" />
        </mxCell>
        <mxCell id="8CpdKijH5Njziu39MDCN-45" value="" style="endArrow=open;startArrow=block;html=1;rounded=0;fontSize=12;startSize=8;endSize=8;curved=1;entryX=0.005;entryY=0.706;entryDx=0;entryDy=0;entryPerimeter=0;exitX=0.996;exitY=0.003;exitDx=0;exitDy=0;exitPerimeter=0;startFill=1;endFill=0;" edge="1" parent="1" source="8CpdKijH5Njziu39MDCN-28" target="8CpdKijH5Njziu39MDCN-42">
          <mxGeometry width="50" height="50" relative="1" as="geometry">
            <mxPoint x="374" y="405" as="sourcePoint" />
            <mxPoint x="424" y="355" as="targetPoint" />
          </mxGeometry>
        </mxCell>
        <mxCell id="8CpdKijH5Njziu39MDCN-49" value="«interface»&lt;br&gt;&lt;b&gt;Enrollable&lt;/b&gt;" style="html=1;whiteSpace=wrap;" vertex="1" parent="1">
          <mxGeometry x="-295" y="100" width="110" height="50" as="geometry" />
        </mxCell>
        <mxCell id="8CpdKijH5Njziu39MDCN-50" value="" style="endArrow=open;html=1;rounded=0;fontSize=12;startSize=8;endSize=8;curved=1;entryX=0.009;entryY=0.082;entryDx=0;entryDy=0;entryPerimeter=0;exitX=0.964;exitY=0.54;exitDx=0;exitDy=0;exitPerimeter=0;endFill=0;" edge="1" parent="1" source="8CpdKijH5Njziu39MDCN-49" target="8CpdKijH5Njziu39MDCN-18">
          <mxGeometry width="50" height="50" relative="1" as="geometry">
            <mxPoint x="-179" y="126" as="sourcePoint" />
            <mxPoint x="-129" y="76" as="targetPoint" />
          </mxGeometry>
        </mxCell>
      </root>
    </mxGraphModel>
  </diagram>
</mxfile>
